HIERARCHY
ROOT Hips
{
	OFFSET 0.000000 0.000000 0.000000
	CHANNELS 6 Xposition Yposition Zposition Zrotation Yrotation Xrotation 
	JOINT LHipJoint
	{
		OFFSET 0.000000 0.000000 0.000000
		CHANNELS 3 Zrotation Yrotation Xrotation
		JOINT LeftUpLeg
		{
			OFFSET 1.363060 -1.794630 0.839290
			CHANNELS 3 Zrotation Yrotation Xrotation
			JOINT LeftLeg
			{
				OFFSET 2.448110 -6.726130 0.000000
				CHANNELS 3 Zrotation Yrotation Xrotation
				JOINT LeftFoot
				{
					OFFSET 2.562200 -7.039590 0.000000
					CHANNELS 3 Zrotation Yrotation Xrotation
					JOINT LeftToeBase
					{
						OFFSET 0.157640 -0.433110 2.322550
						CHANNELS 3 Zrotation Yrotation Xrotation
						End Site
						{
							OFFSET 0.000000 0.000000 0.000000
						}
					}
				}
			}
		}
	}
	JOINT RHipJoint
	{
		OFFSET 0.000000 0.000000 0.000000
		CHANNELS 3 Zrotation Yrotation Xrotation
		JOINT RightUpLeg
		{
			OFFSET -1.305520 -1.794630 0.839290
			CHANNELS 3 Zrotation Yrotation Xrotation
			JOINT RightLeg
			{
				OFFSET -2.542530 -6.985550 0.000000
				CHANNELS 3 Zrotation Yrotation Xrotation
				JOINT RightFoot
				{
					OFFSET -2.568260 -7.056230 0.000000
					CHANNELS 3 Zrotation Yrotation Xrotation
					JOINT RightToeBase
					{
						OFFSET -0.164730 -0.452590 2.363150
						CHANNELS 3 Zrotation Yrotation Xrotation
						End Site
						{
							OFFSET 0.000000 0.000000 0.000000
						}
					}
				}
			}
		}
	}
	JOINT LowerBack
	{
		OFFSET 0.000000 0.000000 0.000000
		CHANNELS 3 Zrotation Yrotation Xrotation
		JOINT Spine
		{
			OFFSET 0.028270 2.035590 -0.193380
			CHANNELS 3 Zrotation Yrotation Xrotation
			JOINT Spine1
			{
				OFFSET 0.056720 2.048850 -0.042750
				CHANNELS 3 Zrotation Yrotation Xrotation
				JOINT Neck
				{
					OFFSET 0.000000 0.000000 0.000000
					CHANNELS 3 Zrotation Yrotation Xrotation
					JOINT Neck1
					{
						OFFSET -0.054170 1.746240 0.172020
						CHANNELS 3 Zrotation Yrotation Xrotation
						JOINT Head
						{
							OFFSET 0.104070 1.761360 -0.123970
							CHANNELS 3 Zrotation Yrotation Xrotation
							End Site
							{
								OFFSET 0.000000 0.000000 0.000000
							}
						}
					}
				}
				JOINT LeftShoulder
				{
					OFFSET 0.000000 0.000000 0.000000
					CHANNELS 3 Zrotation Yrotation Xrotation
					JOINT LeftArm
					{
						OFFSET 3.362410 1.200890 -0.311210
						CHANNELS 3 Zrotation Yrotation Xrotation
						JOINT LeftForeArm
						{
							OFFSET 4.983000 -0.000000 -0.000000
							CHANNELS 3 Zrotation Yrotation Xrotation
							JOINT LeftHand
							{
								OFFSET 3.483560 -0.000000 -0.000000
								CHANNELS 3 Zrotation Yrotation Xrotation
								JOINT LeftFingerBase
								{
									OFFSET 0.000000 0.000000 0.000000
									CHANNELS 3 Zrotation Yrotation Xrotation
									JOINT LeftHandIndex1
									{
										OFFSET 0.715260 -0.000000 -0.000000
										CHANNELS 3 Zrotation Yrotation Xrotation
										End Site
										{
											OFFSET 0.000000 0.000000 0.000000
										}
									}
								}
								JOINT LThumb
								{
									OFFSET 0.000000 0.000000 0.000000
									CHANNELS 3 Zrotation Yrotation Xrotation
									End Site
									{
										OFFSET 0.000000 0.000000 0.000000
									}
								}
							}
						}
					}
				}
				JOINT RightShoulder
				{
					OFFSET 0.000000 0.000000 0.000000
					CHANNELS 3 Zrotation Yrotation Xrotation
					JOINT RightArm
					{
						OFFSET -3.136600 1.374050 -0.404650
						CHANNELS 3 Zrotation Yrotation Xrotation
						JOINT RightForeArm
						{
							OFFSET -5.241900 -0.000000 -0.000000
							CHANNELS 3 Zrotation Yrotation Xrotation
							JOINT RightHand
							{
								OFFSET -3.444170 -0.000000 -0.000000
								CHANNELS 3 Zrotation Yrotation Xrotation
								JOINT RightFingerBase
								{
									OFFSET 0.000000 0.000000 0.000000
									CHANNELS 3 Zrotation Yrotation Xrotation
									JOINT RightHandIndex1
									{
										OFFSET -0.622530 -0.000000 -0.000000
										CHANNELS 3 Zrotation Yrotation Xrotation
										End Site
										{
											OFFSET 0.000000 0.000000 0.000000
										}
									}
								}
								JOINT RThumb
								{
									OFFSET 0.000000 0.000000 0.000000
									CHANNELS 3 Zrotation Yrotation Xrotation
									End Site
									{
										OFFSET 0.000000 0.000000 0.000000
									}
								}
							}
						}
					}
				}
			}
		}
	}
}
MOTION
Frames: 7
Frame Time: 0.008333
-0.250171 17.842072 -30.174022 -1.594395 34.302202 2.181037 -5.589238 -1.766875 0.333950 -5.043578 -13.287702 -8.484514 0.105527 8.297640 22.150154 0.557292 0.633219 4.970337 0.593800 -4.933400 -13.718800 4.216494 1.635793 0.463141 19.116808 -14.211133 -9.396462 -1.269481 -9.162787 23.784979 9.545325 -37.304075 -24.137972 -0.041300 -1.312400 3.608800 3.811398 6.986670 2.381484 2.336229 9.220691 -0.848567 0.028337 4.747344 -1.165527 9.988368 22.876739 4.945648 -4.187425 29.828833 0.855366 -3.439700 14.768700 4.658800 3.809784 -2.183678 0.363459 -94.129235 -3.618913 1.035928 11.617410 -19.051617 -1.812996 0.430586 -0.063213 1.312754 15.805459 -10.517715 -2.864400 -7.125000 0.000000 0.000000 -8.255800 19.174600 5.139500 -2.748946 0.738380 0.447811 80.773490 -7.668941 10.943133 -25.611362 36.338289 -8.203191 0.103569 -0.644212 -15.372814 -23.255452 1.836791 -1.089800 7.125000 0.000000 0.000000 2.611500 -27.208700 1.129500 
-0.249475 17.841972 -30.175712 -1.583544 34.245385 2.219562 -5.592435 -1.767219 0.328374 -5.052956 -13.325444 -8.502267 0.109827 8.305848 22.171161 0.529862 0.735345 4.919990 0.379300 -3.955300 -10.951000 4.219186 1.634212 0.465762 19.092460 -14.260336 -9.420001 -1.263018 -9.138560 23.702152 9.588004 -37.343918 -23.880446 -0.038200 -1.261900 3.469700 3.772339 6.966034 2.333341 2.331965 9.188583 -0.850355 0.036173 4.730893 -1.139269 9.833448 22.914909 4.821290 -4.146690 29.874591 0.879730 -3.396400 14.785500 4.662800 3.796006 -2.177607 0.373915 -94.314291 -3.558608 3.261760 12.017839 -19.759701 -1.992763 0.613323 0.072182 -9.674000 21.307915 -10.587652 -3.973900 -7.125000 0.000000 0.000000 -4.496500 18.688200 2.827300 -2.748854 0.739027 0.442242 80.958973 -7.505631 10.685303 -25.034092 35.763763 -7.883808 0.100470 -0.643073 -15.354155 -23.160056 1.596573 -0.981200 7.125000 0.000000 0.000000 2.689600 -27.474300 1.146600 
-0.250867 17.843265 -30.178397 -1.731728 34.144261 2.183824 -5.581645 -1.767657 0.333425 -4.906319 -13.244445 -8.561761 0.109546 8.296292 22.147293 0.536284 0.719478 4.936227 0.372300 -3.919200 -10.849600 4.219801 1.638751 0.463353 19.230417 -14.181471 -9.419482 -1.247056 -9.112303 23.626377 9.554775 -37.276791 -23.921070 -0.040500 -1.299000 3.571900 3.887191 6.968636 2.338489 2.340609 9.198260 -0.877120 -0.029288 4.733170 -1.152233 9.628463 22.907307 4.598876 -3.928382 29.847042 0.982309 -3.298300 14.766800 4.668200 3.797080 -2.166546 0.373168 -94.416454 -3.582530 2.892822 12.202056 -20.055094 -2.059295 0.633869 0.118854 -11.762856 22.188705 -10.092711 -3.970600 -7.125000 0.000000 0.000000 -3.881100 19.124000 2.400900 -2.754267 0.747306 0.440011 81.183263 -7.344813 10.361518 -24.381496 35.106184 -7.535953 0.090181 -0.642149 -15.078315 -23.501609 1.650824 -1.020000 7.125000 0.000000 0.000000 2.431500 -27.411100 1.040000 
-0.250071 17.845055 -30.179093 -1.678714 34.111008 2.240351 -5.584718 -1.770353 0.329349 -4.955248 -13.252621 -8.563711 0.106172 8.289533 22.126765 0.522813 0.769487 4.924600 0.387900 -3.999300 -11.074700 4.224066 1.635690 0.466226 19.168556 -14.195078 -9.416971 -1.237710 -9.090193 23.554521 9.559075 -37.266167 -23.838797 -0.040400 -1.297300 3.567100 3.995819 7.204599 2.438170 2.054713 9.517539 -1.045182 -0.451341 4.893391 -1.343259 10.448184 22.725889 5.218416 -4.270413 29.586650 0.458765 -3.581600 14.651500 4.538300 3.792805 -2.205681 0.382481 -93.931913 -3.535674 2.481763 12.079130 -19.849203 -2.016014 0.627763 0.097465 -10.677907 21.884400 -10.284641 -3.980900 -7.125000 0.000000 0.000000 -4.094600 18.951800 2.549300 -2.792067 0.721228 0.440068 81.878221 -7.320207 9.401385 -23.563147 34.263128 -7.104965 0.079859 -0.642050 -15.051449 -23.539062 1.673961 -1.030200 7.125000 0.000000 0.000000 2.409900 -27.388300 1.032000 
-0.249773 17.846248 -30.180684 -1.688468 34.051851 2.272858 -5.585734 -1.771061 0.327861 -4.941604 -13.254368 -8.578246 0.103275 8.281198 22.101467 0.507962 0.828581 4.918334 0.371100 -3.912700 -10.831100 4.226234 1.635481 0.467174 19.170770 -14.180264 -9.422630 -1.227272 -9.067327 23.482875 9.558340 -37.247755 -23.770470 -0.040500 -1.299700 3.573800 3.996533 7.229527 2.432773 2.018698 9.550153 -1.078840 -0.503372 4.909857 -1.371369 10.485209 22.721593 5.277327 -4.312588 29.571275 0.348421 -3.609800 14.642400 4.502800 3.792174 -2.211587 0.383658 -93.942575 -3.568427 2.055685 12.131790 -19.940589 -2.040103 0.649871 0.112148 -11.836259 22.657096 -10.416559 -4.187700 -7.125000 0.000000 0.000000 -3.567800 18.750100 2.236000 -2.805335 0.716294 0.437471 82.138827 -7.188861 8.966229 -22.899072 33.560678 -6.762272 0.070529 -0.640298 -14.888478 -23.634622 1.694332 -1.041900 7.125000 0.000000 0.000000 2.341600 -27.368400 1.003800 
-0.249375 17.847540 -30.182275 -1.691632 33.992991 2.311541 -5.588669 -1.770751 0.326775 -4.933816 -13.270877 -8.581485 0.097726 8.267915 22.059888 0.488213 0.908329 4.919130 0.368800 -3.901000 -10.798400 4.227836 1.635587 0.467664 19.167362 -14.160070 -9.434854 -1.218581 -9.048890 23.426116 9.551721 -37.219008 -23.719858 -0.040800 -1.304500 3.587000 3.946451 7.198688 2.402753 2.045334 9.506330 -1.079013 -0.448293 4.888619 -1.364709 10.326239 22.770908 5.231883 -4.303003 29.628756 0.317280 -3.583900 14.666200 4.482300 3.795099 -2.211346 0.381116 -94.053233 -3.633855 1.304226 12.151439 -19.978628 -2.049869 0.658750 0.114246 -12.059912 22.979822 -10.490098 -4.282900 -7.125000 0.000000 0.000000 -3.348100 18.646000 2.105500 -2.814206 0.715370 0.434453 82.285308 -7.041265 8.657432 -22.269128 32.879957 -6.442967 0.061361 -0.637880 -14.692295 -23.718219 1.714330 -1.052600 7.125000 0.000000 0.000000 2.281900 -27.349700 0.979200 
-0.248878 17.848734 -30.183965 -1.694763 33.931924 2.352738 -5.592223 -1.770300 0.324016 -4.926647 -13.302697 -8.589455 0.095228 8.260751 22.036207 0.463511 1.005052 4.907930 0.367200 -3.892500 -10.774500 4.229120 1.636096 0.468566 19.164540 -14.140017 -9.448690 -1.209656 -9.029790 23.368367 9.540957 -37.181192 -23.672838 -0.041100 -1.308700 3.598700 3.866529 7.130366 2.358161 2.113612 9.411781 -1.058596 -0.325100 4.841922 -1.335903 10.005505 22.858050 5.079890 -4.227154 29.738572 0.371852 -3.505200 14.713300 4.479700 3.800317 -2.204440 0.376262 -94.224368 -3.705429 0.499689 12.162698 -20.003525 -2.056210 0.665003 0.110595 -12.024147 23.195705 -10.621628 -4.379500 -7.125000 0.000000 0.000000 -3.203700 18.490600 2.025400 -2.818993 0.718991 0.431023 82.321817 -6.871581 8.467820 -21.653881 32.201432 -6.136541 0.053160 -0.634987 -14.533294 -23.773007 1.683397 -1.039500 7.125000 0.000000 0.000000 2.244300 -27.387600 0.961000 
